<svg xmlns="http://www.w3.org/2000/svg" width="16.202" height="16.55" viewBox="0 0 16.202 16.55">
    <path d="M124.668 17l.382-4.051A6.741 6.741 0 0 1 122 7.492C122 3.6 125.64.45 130.1.45s8.1 3.154 8.1 7.025-3.64 7.025-8.1 7.025a9.334 9.334 0 0 1-2.812-.428zm5.462-15.393c-3.837 0-6.944 2.633-6.944 5.868a5.584 5.584 0 0 0 2.778 4.693l.324.191-.122 1.285.827-.92.37.133a7.986 7.986 0 0 0 2.754.486h.029c3.837 0 6.944-2.633 6.944-5.868s-3.125-5.868-6.961-5.868z" transform="translate(-122 -.45)"/>
</svg>
