<svg xmlns="http://www.w3.org/2000/svg" width="190.3" height="60.4" viewBox="0 0 190.3 60.4">
    <defs>
        <style>
            .cls-1{fill:#114093}
        </style>
    </defs>
    <g id="같구로고-15" transform="translate(-9 -11.6)">
        <g id="그룹_13">
            <path id="패스_32" d="M9 11.9h34.3l-4.8 27.2H26.4l3.3-17.6H9zm51.8 30.2v8.3H23v2.7h37.9v7.8H23v2.7h38.6v8.3H10.8V42.1zm7.9-11.9h-7.9v9.3H49.5V11.8h11.3v8.8h7.9z" class="cls-1"/>
            <path id="패스_33" d="M105.3 71.6H92.5V52.8H70.8V42.7h56.4v10.2h-22v18.7zm13.6-32.9l3.6-26.8H75.2v9.7H109l-2.2 17.2h12.1z" class="cls-1"/>
        </g>
        <g id="그룹_14">
            <path id="패스_34" d="M142.2 12.2h16.7l-2.3 13.2h-5.9l1.6-8.6h-10.1zm25.2 14.7v4H149v1.3h18.4V36H149v1.3h18.8v4h-24.7V26.9zm3.9-5.8h-3.9v4.5h-5.5V12.1h5.5v4.3h3.9z" class="cls-1"/>
            <path id="패스_35" d="M190.5 17.8c-.2 3.2-.4 6.1-.7 8.9s-.6 5.6-1 8.2a6.622 6.622 0 0 1-1 2.7 5.814 5.814 0 0 1-1.8 1.7 8.544 8.544 0 0 1-2.4.9 11.4 11.4 0 0 1-2.6.2 16.551 16.551 0 0 1-3.2-.3 7.415 7.415 0 0 1-2.6-1 5.814 5.814 0 0 1-1.7-1.8 4.9 4.9 0 0 1-.4-2.8c.2-2.7.5-5.4.7-8.1s.5-5.5.9-8.5a8.7 8.7 0 0 1 1-3.1 6.689 6.689 0 0 1 4.4-2.9 12.65 12.65 0 0 1 2.8-.3 14.066 14.066 0 0 1 2.8.3 6.913 6.913 0 0 1 2.5 1 7.69 7.69 0 0 1 1.8 1.8 6.748 6.748 0 0 1 .5 3.1zm-6.9 15.7c.1-1.1.3-2.1.4-3.2.1-1 .3-2.1.4-3.2s.2-2.2.4-3.4c.1-1.2.2-2.5.3-3.8a3.024 3.024 0 0 0-.6-2.5 2.193 2.193 0 0 0-1.7-.7 2.768 2.768 0 0 0-.9.1 2.177 2.177 0 0 0-.8.5 2.425 2.425 0 0 0-.6 1 6.221 6.221 0 0 0-.4 1.6c-.2 1.3-.3 2.6-.5 3.7s-.2 2.3-.4 3.4c-.1 1.1-.2 2.2-.3 3.2l-.3 3.3a2.363 2.363 0 0 0 .2 1.3 1.057 1.057 0 0 0 .6.7 1.135 1.135 0 0 0 .8.3c.3 0 .6.1.8.1a2.485 2.485 0 0 0 .8-.1c.3 0 .5-.2.8-.3a4.35 4.35 0 0 0 .6-.7 3.992 3.992 0 0 0 .4-1.3zm15.7 7.1h-5.5V12.1h5.5z" class="cls-1"/>
            <path id="패스_36" d="M158.4 72h-6.2v-9.1h-10.6V58h27.5v4.9h-10.7zm6.6-16l1.7-13.1h-23v4.7h16.5l-1.1 8.4z" class="cls-1"/>
            <path id="패스_37" d="M184.3 71.1h-13.1V43h13.1zm-7.9-4.7h2.8V47.6h-2.8zm15-12.6h1.8V42.9h5.2v28.5h-5.2V59h-1.8v12.4h-5.2V42.9h5.2z" class="cls-1"/>
        </g>
    </g>
</svg>
