<svg xmlns="http://www.w3.org/2000/svg" width="23.55" height="28.984" viewBox="0 0 23.55 28.984">
    <path fill="black" d="M332.93 23.13a2.36 2.36 0 0 1-2.36-2.36v-9.66a9.43 9.43 0 0 0-6.81-9 2.67 2.67 0 0 0-5.21 0 9.42 9.42 0 0 0-6.81 9v9.66a2.36 2.36 0 0 1-2.36 2.36v2h7a4.86 4.86 0 0 0 9.52 0h7zM321.15 27a2.86 2.86 0 0 1-2.67-1.87h5.35a2.87 2.87 0 0 1-2.68 1.87zM313 23.13a4.33 4.33 0 0 0 .7-2.36v-9.66a7.42 7.42 0 1 1 14.83 0v9.66a4.32 4.32 0 0 0 .69 2.36z" transform="translate(-309.38 -.026)"/>
</svg>
