<svg xmlns="http://www.w3.org/2000/svg" width="132.134" height="132.134" viewBox="0 0 132.134 132.134">
    <defs>
        <radialGradient id="radial-gradient" cx=".5" cy=".5" r=".5" gradientUnits="objectBoundingBox">
            <stop offset="0" stop-color="#fff"/>
            <stop offset=".121" stop-color="#fffefa"/>
            <stop offset=".272" stop-color="#fffbea"/>
            <stop offset=".439" stop-color="#fff6d1"/>
            <stop offset=".617" stop-color="#ffefad"/>
            <stop offset=".805" stop-color="#ffe780"/>
            <stop offset=".997" stop-color="#ffdc49"/>
            <stop offset="1" stop-color="#ffdc48"/>
        </radialGradient>
        <style>
            .cls-2{fill:#114093}
        </style>
    </defs>
    <g id="같구로고-13" transform="translate(-13.6 -13.5)">
        <g id="그룹_2" transform="translate(13.6 13.5)">
            <g id="그룹_1">
                <path id="패스_2" fill="url(#radial-gradient)" d="M119.091 17.7H43A25.334 25.334 0 0 0 17.7 43v76.093a25.334 25.334 0 0 0 25.3 25.3h76.093a25.334 25.334 0 0 0 25.3-25.3V42.932A25.32 25.32 0 0 0 119.091 17.7z" transform="translate(-14.978 -14.911)"/>
                <path id="패스_3" d="M117.714 145.634H41.62a28.026 28.026 0 0 1-28.02-28.02V41.52A28.026 28.026 0 0 1 41.62 13.5h76.093a28.026 28.026 0 0 1 28.02 28.02v76.093a28.068 28.068 0 0 1-28.019 28.021zM41.62 19.011a22.6 22.6 0 0 0-22.575 22.576v76.093a22.6 22.6 0 0 0 22.575 22.576h76.093a22.6 22.6 0 0 0 22.576-22.576V41.52a22.6 22.6 0 0 0-22.576-22.576H41.62z" class="cls-2" transform="translate(-13.6 -13.5)"/>
            </g>
        </g>
        <g id="그룹_5" transform="translate(41.82 26.992)">
            <g id="그룹_3" transform="translate(.193 24.527)">
                <path id="패스_4" fill="#ffdc48" d="M58 77.314v68.258l59.56 5.511 6.507-3.851h7.1V78.974L71.678 72.4l-7.1 3.32-6.578.531" transform="translate(-56.931 -71.31)"/>
                <path id="패스_5" d="M117.019 151.594h-.133l-59.494-5.445a1.134 1.134 0 0 1-1-1.062V76.762a1.251 1.251 0 0 1 .133-.531.96.96 0 0 1-.133-.465 1.108 1.108 0 0 1 1-1.2l6.374-.531 6.906-3.187a.938.938 0 0 1 .6-.066l59.494 6.574a1.134 1.134 0 0 1 1 1.062v68.262a1.049 1.049 0 0 1-1.062 1.062h-6.839l-6.308 3.652a.754.754 0 0 1-.538.2zm-58.431-7.569l58.166 5.312 6.246-3.653a1.563 1.563 0 0 1 .531-.133h5.969V79.418l-58.23-6.441-6.839 3.123a.842.842 0 0 1-.4.066l-5.578.465v67.4z" class="cls-2" transform="translate(-56.39 -70.759)"/>
            </g>
            <path id="패스_6" d="M147.293 88.22a.8.8 0 0 1-.8-.73.736.736 0 0 1 .73-.863l6.577-.527a.8.8 0 1 1 .133 1.594l-6.574.531z" class="cls-2" transform="translate(-86.471 -51.382)"/>
            <path id="패스_7" d="M157.191 86.041a.817.817 0 0 1-.73-.465.779.779 0 0 1 .4-1.062l7.1-3.254a.8.8 0 0 1 .664 1.461l-7.1 3.254a2.875 2.875 0 0 0-.334.066z" class="cls-2" transform="translate(-89.796 -49.734)"/>
            <path id="패스_8" d="M157.1 94.765a.807.807 0 0 1-.8-.8V86.8a.807.807 0 0 1 .8-.8.857.857 0 0 1 .8.8v7.1a.784.784 0 0 1-.8.865z" class="cls-2" transform="translate(-89.768 -51.353)"/>
            <path id="패스_9" d="M157.1 165.031a.807.807 0 0 1-.8-.8V123.8a.807.807 0 0 1 .8-.8.857.857 0 0 1 .8.8v40.437a.733.733 0 0 1-.8.794z" class="cls-2" transform="translate(-89.768 -63.785)"/>
            <g id="그룹_4" transform="translate(0 28.521)">
                <path id="패스_10" fill="#fff" d="M57.9 78.4l39.109 4.382-5.378 30.212-13.944-1.394 3.718-17.861L57.9 90.485zm59.029 40.968v9.432l-45.351-5.445v3.054l45.351 5.445v8.831l-45.351-5.445v3.121l46.147 5.445v9.429l-59.759-5.511v-34.929zm8.964-13.545l-9.03-1.062v11.686l-12.749-1.859-.133-31.141 12.948 1.394v8.9l9.03 1.062v11.022z" transform="translate(-56.705 -77.32)"/>
                <path id="패스_11" d="M117.121 153.748h-.066L57.362 148.3a1.134 1.134 0 0 1-1-1.062v-34.923a1.1 1.1 0 0 1 .332-.8.982.982 0 0 1 .863-.266l58.9 6.574a1.134 1.134 0 0 1 1 1.062v9.429a.946.946 0 0 1-.4.8 1.046 1.046 0 0 1-.863.266L72.1 124.067v.863l44.355 5.312a1.073 1.073 0 0 1 .93 1.062v8.831a.947.947 0 0 1-.4.8 1.046 1.046 0 0 1-.863.266l-44.089-5.312v.93l45.151 5.378a1.134 1.134 0 0 1 1 1.062v9.429a1.1 1.1 0 0 1-.332.8 1 1 0 0 1-.731.26zm-58.63-7.569l57.5 5.246v-7.238l-45.151-5.378a1.134 1.134 0 0 1-1-1.062v-3.054a.947.947 0 0 1 .4-.8 1.046 1.046 0 0 1 .863-.266l44.089 5.312V132.3l-44.355-5.312a1.073 1.073 0 0 1-.93-1.062v-3.054a.946.946 0 0 1 .4-.8 1.046 1.046 0 0 1 .863-.266l44.089 5.312v-7.171l-56.7-6.308v32.536zm57.834-29.216h-.133l-12.749-1.863a1.073 1.073 0 0 1-.93-1.062l-.2-31.141a1.1 1.1 0 0 1 .332-.8.982.982 0 0 1 .863-.266l12.948 1.394a1.134 1.134 0 0 1 1 1.062v7.9l8.034 1a1.073 1.073 0 0 1 .93 1.062v11.022a.946.946 0 0 1-.4.8 1.046 1.046 0 0 1-.863.266l-7.769-.93V115.9a.946.946 0 0 1-.4.8.852.852 0 0 1-.664.263zm-11.686-3.851l10.557 1.527v-10.425a.946.946 0 0 1 .4-.8 1.046 1.046 0 0 1 .863-.266l7.769.93V95.25l-8.034-1a1.073 1.073 0 0 1-.93-1.062v-7.9L104.5 84.1zm-13.678.4h-.133l-13.944-1.394a1.012 1.012 0 0 1-.8-.465 1.057 1.057 0 0 1-.2-.863l3.519-16.666L57.03 91a1.073 1.073 0 0 1-.93-1.062V77.854a1.1 1.1 0 0 1 .332-.8.982.982 0 0 1 .863-.266L96.4 81.174a.958.958 0 0 1 .73.465 1.007 1.007 0 0 1 .2.863l-5.378 30.212a.958.958 0 0 1-.992.796zm-12.551-3.521l11.686 1.2 4.98-28.02-36.718-4.122v9.827L80.933 92a.958.958 0 0 1 .73.465 1.007 1.007 0 0 1 .2.863z" class="cls-2" transform="translate(-56.1 -76.774)"/>
            </g>
            <path id="패스_12" d="M113.136 77.474a.807.807 0 0 1-.8-.8c0-17.131-7.569-29.348-19.256-31.208a13.177 13.177 0 0 0-10.757 3.054c-5.312 4.515-8.233 13.147-8.233 24.236a.8.8 0 1 1-1.594 0c0-11.553 3.121-20.65 8.831-25.5a14.847 14.847 0 0 1 12.089-3.446c12.549 1.992 20.65 14.873 20.65 32.868a.984.984 0 0 1-.93.796z" class="cls-2" transform="translate(-61.611 -37.117)"/>
            <path id="패스_13" d="M131.414 65.479a.807.807 0 0 1-.8-.8c0-15.936-7.038-27.356-17.861-29.016a12.112 12.112 0 0 0-9.96 2.789c-4.914 4.117-7.636 12.018-7.7 22.177a.807.807 0 0 1-.8.8.807.807 0 0 1-.8-.8c.066-10.69 2.988-18.99 8.3-23.439a13.576 13.576 0 0 1 11.221-3.187C124.7 35.862 132.27 47.88 132.27 64.679a.923.923 0 0 1-.856.8z" class="cls-2" transform="translate(-68.667 -33.82)"/>
            <circle id="타원_12" cx="1.926" cy="1.926" r="1.926" class="cls-2" transform="translate(9.761 33.518)"/>
            <circle id="타원_13" cx="1.926" cy="1.926" r="1.926" class="cls-2" transform="translate(49.6 37.9)"/>
        </g>
    </g>
</svg>
