<svg width="195" height="94" viewBox="0 0 195 94" fill="none" xmlns="http://www.w3.org/2000/svg">
    <path d="M38 33.7h34.3l-4.8 27.2H55.4l3.3-17.6H38v-9.6zm51.8 30.2v8.3H52v2.7h37.9v7.8H52v2.7h38.6v8.3H39.8V63.9h50zM97.7 52h-7.9v9.3H78.5V33.6h11.3v8.8h7.9V52zM134.3 93.4h-12.8V74.6H99.8V64.5h56.4v10.2h-22v18.7h.1zm13.6-32.9 3.6-26.8h-47.3v9.7H138l-2.2 17.2h12.1v-.1zM0 .43h8.82L7.6 7.41H4.47l.85-4.52H0V.43zm13.32 7.78v2.12H3.58v.68h9.74v2H3.58v.7h9.92v2.12H.47V8.2h12.85v.01zm2.03-3.06h-2.03v2.39H10.4V.41h2.92v2.25h2.03V5.15zM25.51 3.44c-.11 1.67-.23 3.24-.36 4.72-.13 1.48-.31 2.93-.52 4.35-.1.59-.28 1.07-.55 1.45-.27.38-.59.67-.97.89-.38.22-.79.37-1.24.45-.45.08-.9.13-1.36.13-.6 0-1.16-.05-1.68-.15-.52-.1-.97-.28-1.35-.52-.38-.25-.67-.57-.87-.96-.2-.4-.28-.89-.23-1.48.13-1.43.25-2.85.37-4.26.11-1.41.27-2.9.48-4.47.08-.66.26-1.2.54-1.62.28-.42.61-.75 1.01-1s.83-.41 1.31-.5c.48-.09.97-.13 1.46-.13s.97.05 1.46.15c.49.1.93.28 1.32.52.39.25.7.57.93.96.23.4.32.89.27 1.48l-.02-.01zm-3.67 8.25c.07-.56.14-1.12.22-1.67.07-.55.14-1.11.21-1.69.07-.57.13-1.18.19-1.81.06-.63.12-1.31.18-2.03.05-.62-.05-1.06-.3-1.3-.25-.25-.54-.37-.87-.37-.17 0-.33.02-.48.07-.15.05-.29.13-.42.26s-.25.3-.34.52c-.09.22-.17.51-.22.85-.1.7-.18 1.35-.24 1.96-.06.61-.13 1.21-.19 1.79-.06.58-.11 1.15-.16 1.72-.05.56-.1 1.14-.14 1.72-.02.3 0 .54.08.71.08.17.18.3.31.39.13.08.26.13.41.15.15.02.29.03.42.03s.27-.01.41-.04a.97.97 0 0 0 .41-.17c.13-.09.24-.22.33-.39.1-.17.16-.4.2-.7h-.01zm8.33 3.78h-2.92V.41h2.92v15.06zM45.81 15.79h-3.28v-4.82h-5.58V8.36h14.51v2.61h-5.65v4.82zm3.51-8.46.92-6.89H38.09v2.48h8.69l-.58 4.41H49.32zM59.49 15.28h-6.93V.43h6.93v14.85zM55.3 12.8h1.48V2.9H55.3v9.9zm7.92-6.64h.95V.41h2.74v15.05h-2.74V8.89h-.95v6.57h-2.74V.41h2.74v5.75zM78.03 3.29h-9.56v-2.1h3.04L71.76 0h3.76l-.22 1.19h2.72v2.1h.01zm-6.75 5.29c-.46-.01-.85-.08-1.17-.21-.32-.13-.59-.3-.8-.51-.21-.21-.37-.47-.47-.76-.1-.29-.15-.59-.15-.92 0-.33.04-.63.13-.92.09-.29.24-.53.44-.74.2-.21.47-.37.81-.5.34-.13.75-.19 1.24-.19.44-.01.81-.02 1.11-.02h1.67c.29 0 .66 0 1.12.02.49 0 .91.06 1.24.18.33.12.61.29.81.5.2.21.35.46.44.75.09.29.14.59.14.92 0 .33-.05.63-.15.92-.1.29-.26.54-.47.76-.21.22-.48.39-.81.51-.33.12-.72.2-1.16.21-.46.01-.83.02-1.13.03h-1.7c-.3 0-.68-.01-1.13-.03h-.01zm11.05 5.4v1.85H69.3v-4.21h9.76v-.58H69.3V9.19h12.85v4.16h-9.74v.63h9.92zm-8.12-7.25c.17-.02.33-.06.48-.12.15-.05.23-.2.23-.42 0-.24-.08-.38-.23-.43-.15-.05-.31-.08-.48-.11-.24-.01-.43-.02-.57-.02h-.77c-.14 0-.33 0-.57.02-.17.02-.33.06-.48.11-.15.05-.22.19-.22.43 0 .23.07.37.22.42.15.05.31.09.48.12.24.01.43.02.57.03h.78c.14 0 .33-.01.57-.03h-.01zm9.97-.94h-2.03v2.88h-2.92V.41h2.92v2.9h2.03v2.48zM99.34 15.28h-2.7l-1.42-7.31-.49-3.13-.68 3.13-1.64 7.31h-3.2L93.04.43h3.56l2.74 14.85zm5.83-6.66h-2.02v6.84h-2.92V.41h2.92v5.73h2.02v2.48zM115.25 9.16h-8.91V3.58h5.4v-.86h-5.36V.43h8.28v5.44h-5.4v.99h5.99v2.3zm4.21 6.7h-12.78v-5.78h12.78v5.78zm-9.86-3.47v1.17h6.95v-1.17h-6.95zm11.79-6.5h-1.98v3.6h-2.92V.41h2.92v3h1.98v2.48zM126.92 2.74V.43h9.94v2.31h-9.94zm0 4.84v-2.3h1.44l.2-2h2.72l-.2 2h1.62l.2-2h2.68l-.2 2h1.48v2.3h-9.94zm14.24 6.14v2.12h-13.03v-4.81h9.76v-.61h-9.76V8.3h12.85v4.73h-9.74v.68h9.92v.01zm-.18-6.01h-2.92V.41h2.92v7.3zM145.56 12.98V9.22c-.54-.42-.96-.97-1.27-1.67-.31-.69-.46-1.47-.46-2.35 0-.72.11-1.38.33-1.98.22-.6.52-1.12.9-1.55.38-.43.82-.77 1.33-1.01.51-.24 1.06-.36 1.65-.36.52-.01.94-.02 1.27-.03.33-.01.64 0 .94 0h.94c.33 0 .75.01 1.27.03.58.01 1.12.14 1.64.39.52.25.97.58 1.35 1.01.38.43.69.94.91 1.53.22.59.33 1.25.33 1.97 0 .86-.15 1.63-.46 2.3-.31.67-.72 1.22-1.23 1.66v3.82h2.59v2.48h-14.53v-2.48h2.5zm1.13-7.78c0 .35.05.66.15.95.1.28.24.53.41.74.17.21.38.38.61.5.23.13.48.2.73.21.35.02.65.04.92.04h1.5c.25 0 .55-.01.9-.03.25 0 .49-.06.72-.19.23-.13.43-.29.6-.5.17-.21.31-.46.41-.75.1-.29.15-.61.15-.95 0-.34-.05-.65-.15-.95-.1-.29-.24-.55-.42-.76-.18-.21-.38-.38-.61-.5-.23-.12-.47-.18-.72-.18-.32-.01-.61-.02-.86-.03h-1.51c-.27 0-.58.02-.93.03-.25.01-.5.08-.73.2-.23.12-.44.29-.61.5-.17.21-.31.46-.41.75-.1.29-.15.6-.15.94V5.2zm5.2 4.93c-.32.01-.61.02-.86.03h-1.49c-.26 0-.56-.01-.89-.03v2.84h3.24v-2.84zM167.92 3.29h-9.56v-2.1h3.04l.25-1.19h3.76l-.22 1.19h2.72v2.1h.01zm-6.75 5.29c-.46-.01-.85-.08-1.17-.21-.32-.13-.59-.3-.8-.51-.21-.21-.37-.47-.47-.76-.1-.29-.15-.59-.15-.92 0-.33.04-.63.13-.92.09-.29.24-.53.44-.74.2-.21.47-.37.81-.5.34-.13.75-.19 1.24-.19.44-.01.81-.02 1.11-.02h1.67c.29 0 .66 0 1.12.02.49 0 .91.06 1.24.18.33.12.61.29.81.5.2.21.35.46.44.75.09.29.14.59.14.92 0 .33-.05.63-.15.92-.1.29-.26.54-.47.76-.21.22-.48.39-.81.51-.33.12-.72.2-1.16.21-.46.01-.83.02-1.13.03-.3.01-.58 0-.85 0h-.85c-.3 0-.68-.01-1.13-.03h-.01zm11.05 5.4v1.85h-13.03v-4.21h9.76v-.58h-9.76V9.19h12.85v4.16h-9.74v.63h9.92zm-8.12-7.25c.17-.02.33-.06.48-.12.15-.06.23-.2.23-.42 0-.24-.08-.38-.23-.43-.15-.05-.31-.08-.48-.11-.24-.01-.43-.02-.57-.02h-.77c-.14 0-.33 0-.57.02-.17.02-.33.06-.48.11-.15.05-.22.19-.22.43 0 .23.08.37.22.42.15.05.31.09.48.12.24.01.43.02.57.03h.78c.14 0 .33-.01.57-.03h-.01zm9.97-.94h-2.03v2.88h-2.92V.41h2.92v2.9h2.03v2.48zM183.62 15.28h-3.76V.43h3.71V2.9h-1.06v9.9h1.12v2.48h-.01zm4.23 0h-3.87V.43h3.71V2.9h-1.06v9.9h1.22v2.48zm3.13-9.49h.7V.41h2.56v15.05h-2.56V8.53h-.7v6.93h-2.56V.41h2.56V5.8v-.01z" fill="#114093"/>
</svg>
