<svg xmlns="http://www.w3.org/2000/svg" width="288" height="174" viewBox="0 0 288 174">
    <defs>
        <filter id="사각형_463" width="282" height="168" x="3" y="3" filterUnits="userSpaceOnUse">
            <feOffset dy="3"/>
            <feGaussianBlur result="blur" stdDeviation="3"/>
            <feFlood flood-opacity=".161"/>
            <feComposite in2="blur" operator="in"/>
            <feComposite in="SourceGraphic"/>
        </filter>
        <filter id="사각형_465" width="288" height="174" x="0" y="0" filterUnits="userSpaceOnUse">
            <feOffset dy="3"/>
            <feGaussianBlur result="blur-2" stdDeviation="4"/>
            <feFlood flood-opacity=".161"/>
            <feComposite in2="blur-2" operator="in"/>
            <feComposite in="SourceGraphic"/>
        </filter>
        <style>
            .cls-1{fill:#f0f0f0}.cls-2{fill:#fff}.cls-4{fill:none}.cls-7{fill:#8d8d8d}.cls-11,.cls-7{font-family:NotoSansCJKkr-Regular,Noto Sans CJK KR}.cls-6{fill:#c9c9c9}.cls-7{font-size:6px}.cls-11{font-size:12px}
        </style>
    </defs>
    <g id="그룹_82" transform="translate(-44 -239)">
        <g filter="url(#사각형_463)" transform="translate(44 239)">
            <rect id="사각형_463-2" width="264" height="150" class="cls-1" rx="15" transform="translate(12 9)"/>
        </g>
        <g filter="url(#사각형_465)" transform="translate(44 239)">
            <rect id="사각형_465-2" width="264" height="150" class="cls-1" rx="15" transform="translate(12 9)"/>
        </g>
        <g id="그룹_15" transform="translate(56 -393.384)">
            <path id="사각형_466" d="M0 0H264V20H0z" class="cls-2" transform="translate(0 743.384)"/>
            <rect id="사각형_1" width="264" height="48" class="cls-2" rx="15" transform="translate(0 743.384)"/>
            <path id="선_1" fill="none" stroke="#c9c9c9" d="M0 0L264 0" transform="translate(0 743.303)"/>
            <g id="홈_off" transform="translate(0 743.384)">
                <path id="사각형_47" d="M0 0H52V49H0z" class="cls-4"/>
                <text id="홈" fill="#8d8d8d" font-family="NotoSansCJKkr-Regular, Noto Sans CJK KR" font-size="7px" transform="translate(25 39)">
                    <tspan x="-3.22" y="0">홈</tspan>
                </text>
                <path id="패스_40" d="M19.775 10.405L9.962 0 0 10.4l1.014.972.7-.753v9.441h6.818v-6.916h2.816v6.913h6.815V10.75l.584.62zm-3.013 8.244h-4v-6.913h-5.63v6.913H3.147v-9.5l6.808-7.11 6.808 7.216z" class="cls-6" transform="translate(16.378 10.525)"/>
            </g>
            <g id="검색_off" transform="translate(52 743.384)">
                <path id="사각형_48" d="M0 0H52V49H0z" class="cls-4"/>
                <text id="검색" class="cls-7" transform="translate(27 38)">
                    <tspan x="-5.52" y="0">검색</tspan>
                </text>
                <path id="패스_61" d="M268.383 18.382l-5.315-4.982a8.392 8.392 0 1 0-.993 1l5.35 5.005zM256.711 15a6.85 6.85 0 1 1 6.85-6.85 6.85 6.85 0 0 1-6.85 6.85z" class="cls-6" transform="translate(-231.563 10.904)"/>
            </g>
            <g id="글쓰기_off" transform="translate(106 743.384)">
                <path id="사각형_48-2" d="M0 0H52V49H0z" class="cls-4"/>
                <text id="글쓰기" class="cls-7" transform="translate(25 38)">
                    <tspan x="-8.28" y="0">글쓰기</tspan>
                </text>
                <g id="그룹_79" transform="translate(16.896 10.525)">
                    <path id="패스_59" d="M70.856.45a9.856 9.856 0 1 0 9.856 9.856A9.856 9.856 0 0 0 70.856.45zm0 18.3a3.5 3.5 0 1 1 0 .028z" class="cls-6" transform="translate(-61 -.45)"/>
                    <path id="패스_60" d="M73.364 6.43h-1.408v4.956H67v1.408h4.956v4.963h1.408v-4.963h4.963v-1.408h-4.963z" class="cls-6" transform="translate(-62.776 -2.22)"/>
                </g>
            </g>
            <g id="더보기_off" transform="translate(212 743.384)">
                <path id="사각형_49" d="M0 0H52V49H0z" class="cls-4"/>
                <text id="더보기" class="cls-7" transform="translate(24 38)">
                    <tspan x="-8.28" y="0">더보기</tspan>
                </text>
                <g id="그룹_18" transform="translate(16.453 10.554)">
                    <path id="패스_43" d="M192.856.45a9.856 9.856 0 1 0 9.856 9.856A9.856 9.856 0 0 0 192.856.45zm0 18.3a3.5 3.5 0 1 1 0 .028z" class="cls-6" transform="translate(-183 -.45)"/>
                    <path id="사각형_51" d="M0 0H1.19V1.408H0z" class="cls-6" transform="translate(4.224 9.166)"/>
                    <path id="사각형_52" d="M0 0H1.19V1.408H0z" class="cls-6" transform="translate(9.293 9.166)"/>
                    <path id="사각형_53" d="M0 0H1.19V1.408H0z" class="cls-6" transform="translate(14.355 9.166)"/>
                </g>
            </g>
            <g id="채팅_on" transform="translate(158 743.384)">
                <path id="사각형_50" d="M0 0H52V49H0z" class="cls-4"/>
                <text id="채팅" font-family="NotoSansCJKkr-Regular, Noto Sans CJK KR" font-size="6px" transform="translate(27 38)">
                    <tspan x="-5.52" y="0">채팅</tspan>
                </text>
                <path id="패스_91" d="M125.245 20.584l.465-4.928A8.2 8.2 0 0 1 122 9.018c0-4.731 4.428-8.568 9.856-8.568s9.856 3.837 9.856 8.55-4.428 8.547-9.856 8.547a11.355 11.355 0 0 1-3.421-.521zm6.646-18.726c-4.668 0-8.448 3.2-8.448 7.139a6.794 6.794 0 0 0 3.379 5.709l.394.232-.148 1.563 1.007-1.119.451.162a9.715 9.715 0 0 0 3.351.591h.035c4.668 0 8.448-3.2 8.448-7.139s-3.8-7.139-8.469-7.139z" transform="translate(-105.456 10.075)"/>
            </g>
        </g>
        <text id="_22:31" fill="#8d8d8d" font-family="NotoSansCJKkr-Regular, Noto Sans CJK KR" font-size="8px" transform="translate(213 286)">
            <tspan x="0" y="0">22:31</tspan>
        </text>
        <rect id="사각형_104" width="170" height="44" fill="#ffdc48" rx="11" transform="translate(138 297)"/>
        <rect id="사각형_103" width="139" height="28" class="cls-2" rx="11" transform="translate(68 262)"/>
        <text id="좋아요_기숙사_앞_경비실에서_뵐까요_" class="cls-11" transform="translate(146 300)">
            <tspan x="0" y="14">좋아요! 기숙사 앞 경비실에서 </tspan><tspan x="0" y="32">뵐까요?</tspan>
        </text>
        <text id="같이_구매하고_싶어요_" class="cls-11" transform="translate(76 266)">
            <tspan x="0" y="14">같이 구매하고 싶어요!</tspan>
        </text>
    </g>
</svg>
