<?xml version="1.0" encoding="iso-8859-1"?>
<!-- Generator: Adobe Illustrator 19.0.0, SVG Export Plug-In . SVG Version: 6.00 Build 0)  -->
<svg version="1.1" id="Layer_1" xmlns="http://www.w3.org/2000/svg" xmlns:xlink="http://www.w3.org/1999/xlink" x="0px" y="0px"
	 viewBox="0 0 512 512" style="enable-background:new 0 0 512 512;" xml:space="preserve">
<g transform="translate(1)">
	<path style="fill:#E2E3E5;" d="M511,246.519c0,130.844-106.193,237.037-237.037,237.037S36.926,377.363,36.926,246.519
		S143.119,9.481,273.963,9.481S511,115.674,511,246.519"/>
	<path style="fill:#CCCCCC;" d="M482.556,246.519c0,130.844-106.193,237.037-237.037,237.037S8.481,377.363,8.481,246.519
		S114.674,9.481,245.519,9.481S482.556,115.674,482.556,246.519"/>
	<path style="fill:#E2E3E5;" d="M454.111,246.519c0,130.844-92.919,237.037-208.593,237.037S36.926,377.363,36.926,246.519
		S130.793,9.481,245.519,9.481S454.111,115.674,454.111,246.519"/>
	<path style="fill:#FFFFFF;" d="M36.926,246.519c0-130.844,93.867-237.037,208.593-237.037
		C114.674,9.481,8.481,115.674,8.481,246.519s106.193,237.037,237.037,237.037C130.793,483.556,36.926,377.363,36.926,246.519"/>
	<g>
		<path style="fill:#B6B6B6;" d="M245.519,502.519C109.933,502.519-1,391.585-1,256S109.933,9.481,245.519,9.481
			S492.037,120.415,492.037,256S381.104,502.519,245.519,502.519z M245.519,28.444c-125.156,0-227.556,102.4-227.556,227.556
			s102.4,227.556,227.556,227.556S473.074,381.156,473.074,256S370.674,28.444,245.519,28.444z"/>
		<path style="fill:#B6B6B6;" d="M245.519,388.741c-5.689,0-9.481-3.793-9.481-9.481V142.222c0-5.689,3.793-9.481,9.481-9.481
			c5.689,0,9.481,3.793,9.481,9.481v237.037C255,384.948,251.207,388.741,245.519,388.741z"/>
		<path style="fill:#B6B6B6;" d="M364.037,265.481H127c-5.689,0-9.481-3.793-9.481-9.481c0-5.689,3.793-9.481,9.481-9.481h237.037
			c5.689,0,9.481,3.793,9.481,9.481C373.519,261.689,369.726,265.481,364.037,265.481z"/>
	</g>
</g>
<g>
</g>
<g>
</g>
<g>
</g>
<g>
</g>
<g>
</g>
<g>
</g>
<g>
</g>
<g>
</g>
<g>
</g>
<g>
</g>
<g>
</g>
<g>
</g>
<g>
</g>
<g>
</g>
<g>
</g>
</svg>
